<svg
          width="42"
          height="42"
          viewBox="0 0 42 42"
          fill="none"
          xmlns="http://www.w3.org/2000/svg"
        >
          <circle cx="21" cy="21" r="21" fill="#F5F5F5" />
          <path
            d="M29.6584 9H14.554C13.6114 9 12.7074 9.37381 12.0409 10.0392C11.3744 10.7046 11 11.6071 11 12.5481V31.1755C11 31.4107 11.0936 31.6364 11.2602 31.8027C11.4269 31.969 11.6529 32.0625 11.8885 32.0625H27.8814C28.117 32.0625 28.343 31.969 28.5097 31.8027C28.6763 31.6364 28.7699 31.4107 28.7699 31.1755C28.7699 30.9402 28.6763 30.7146 28.5097 30.5483C28.343 30.3819 28.117 30.2885 27.8814 30.2885H12.777C12.777 29.818 12.9642 29.3667 13.2975 29.034C13.6307 28.7013 14.0827 28.5144 14.554 28.5144H29.6584C29.894 28.5144 30.12 28.421 30.2866 28.2546C30.4533 28.0883 30.5469 27.8627 30.5469 27.6274V9.88702C30.5469 9.65177 30.4533 9.42615 30.2866 9.2598C30.12 9.09345 29.894 9 29.6584 9ZM26.9929 19.6442L24.1486 17.5154C24.0717 17.4578 23.9782 17.4267 23.8821 17.4267C23.7859 17.4267 23.6924 17.4578 23.6155 17.5154L20.7734 19.6442V10.774H26.9929V19.6442Z"
            fill="#1B262C"
          />
        </svg>